<svg id="svg" version="1.1" width="400" height="200" xmlns="http://www.w3.org/2000/svg" xmlns:xlink="http://www.w3.org/1999/xlink" style="display: block;"><g id="svgg"><path id="path0" d="M27.223 6.284 C 26.519 6.687,26.439 7.021,26.667 8.598 C 26.850 9.866,26.756 10.723,26.363 11.347 C 25.558 12.629,25.649 13.313,26.791 14.546 C 27.341 15.138,27.689 15.885,27.567 16.204 C 27.444 16.524,27.547 16.786,27.797 16.786 C 28.080 16.786,28.250 17.759,28.250 19.388 C 28.250 22.098,29.021 23.585,32.244 27.087 C 33.499 28.451,34.060 36.715,33.179 40.864 C 32.719 43.035,32.757 43.587,33.569 46.507 C 34.064 48.288,34.631 51.310,34.829 53.224 C 35.027 55.138,35.308 57.661,35.454 58.831 C 35.845 61.969,35.392 63.545,33.300 66.329 L 31.419 68.831 32.495 69.955 C 33.489 70.992,33.572 71.353,33.572 74.633 L 33.572 78.188 32.037 78.834 C 31.192 79.189,29.949 79.586,29.273 79.715 C 24.097 80.704,11.917 88.486,8.467 93.009 C 6.578 95.485,6.639 99.748,8.593 101.846 C 10.957 104.383,11.464 105.624,11.464 108.882 C 11.464 114.987,16.714 121.997,21.292 122.003 C 24.217 122.008,25.814 122.672,28.028 124.807 C 29.594 126.317,30.685 126.967,32.549 127.504 C 39.277 129.441,39.746 129.954,37.254 132.654 C 32.867 137.406,31.855 141.978,31.862 157.011 C 31.869 170.929,31.100 173.670,26.305 176.820 C 24.718 177.863,24.603 178.961,25.768 181.978 C 26.204 183.108,26.677 184.401,26.819 184.852 C 27.058 185.612,27.105 185.619,27.479 184.954 C 28.547 183.051,30.371 185.098,31.318 189.264 C 32.114 192.763,32.186 192.821,35.722 192.829 C 38.939 192.836,39.324 192.261,36.949 190.992 L 35.415 190.173 35.305 180.034 C 35.191 169.523,35.188 169.556,37.233 160.491 C 37.673 158.542,39.431 152.076,40.741 147.595 C 41.333 145.568,41.966 143.357,42.147 142.682 C 45.007 132.043,50.354 128.832,50.867 137.446 C 51.130 141.879,51.503 142.918,56.673 153.631 C 62.677 166.074,63.511 172.142,59.707 175.702 C 58.331 176.989,58.272 177.796,59.365 180.348 C 59.816 181.399,60.184 182.732,60.184 183.311 C 60.184 184.334,60.208 184.343,60.993 183.633 C 62.668 182.116,64.281 184.429,64.950 189.309 C 65.255 191.537,65.625 191.714,69.588 191.526 L 72.212 191.402 70.539 190.298 L 68.865 189.194 68.618 184.362 C 68.318 178.512,67.907 176.033,65.916 168.066 C 64.066 160.661,62.072 151.123,61.208 145.548 C 60.859 143.296,60.292 140.295,59.947 138.880 C 59.061 135.243,59.359 134.735,63.010 133.664 C 63.551 133.505,64.841 132.879,65.876 132.272 C 68.378 130.805,68.838 130.651,72.096 130.189 C 75.540 129.701,80.158 127.216,80.223 125.817 C 80.258 125.067,79.008 123.030,71.853 112.180 C 55.788 87.819,56.749 89.876,56.658 79.632 C 56.618 75.128,56.384 69.601,56.139 67.349 C 54.840 55.444,54.746 53.407,55.434 52.077 C 56.519 49.979,55.723 45.855,54.234 45.855 C 52.910 45.855,48.112 43.123,46.114 41.232 C 44.958 40.137,43.509 38.976,42.893 38.652 C 41.519 37.927,40.536 36.113,40.417 34.080 C 40.320 32.425,40.968 32.214,43.854 32.960 C 45.009 33.259,46.384 31.403,47.488 28.058 C 47.751 27.263,48.227 26.612,48.548 26.612 C 49.327 26.612,49.286 25.379,48.467 24.210 C 47.967 23.496,47.872 22.793,48.080 21.355 C 48.232 20.306,48.460 18.342,48.587 16.991 C 48.714 15.640,49.001 14.306,49.225 14.027 C 49.510 13.672,49.435 13.445,48.974 13.268 C 48.612 13.129,48.401 12.878,48.504 12.711 C 48.780 12.264,47.155 10.645,46.430 10.645 C 46.089 10.645,44.945 10.245,43.887 9.757 C 42.571 9.149,40.717 8.779,38.004 8.584 C 34.374 8.323,33.914 8.192,32.486 7.015 C 30.822 5.644,28.823 5.366,27.223 6.284 M44.039 64.921 C 46.688 70.427,45.756 73.295,40.523 75.746 C 37.504 77.160,37.182 76.510,38.746 72.160 C 39.205 70.883,39.595 70.420,40.210 70.420 C 40.974 70.420,41.025 70.247,40.785 68.475 C 40.064 63.137,40.019 61.826,40.535 61.205 C 41.308 60.273,42.319 61.345,44.039 64.921 " stroke="none" fill="#000000" fill-rule="evenodd"></path><path id="path1" d="M24.770 4.504 C 24.631 4.729,24.826 4.913,25.205 4.913 C 25.774 4.913,25.804 5.021,25.379 5.533 C 25.092 5.879,24.831 7.436,24.789 9.057 C 24.724 11.590,24.587 12.065,23.719 12.771 C 22.731 13.573,22.731 13.579,23.644 13.379 C 24.400 13.214,24.565 13.355,24.565 14.163 C 24.565 14.875,24.792 15.148,25.384 15.148 C 25.834 15.148,26.181 15.287,26.154 15.455 C 25.998 16.448,26.282 17.195,26.817 17.195 C 27.516 17.195,27.564 17.432,27.450 20.280 C 27.370 22.254,27.474 22.469,29.914 25.383 L 32.462 28.425 31.175 28.758 C 30.229 29.003,29.887 29.328,29.887 29.981 C 29.887 30.672,29.997 30.761,30.379 30.379 C 32.458 28.300,33.226 30.957,32.703 38.414 C 32.318 43.901,32.351 44.659,33.101 47.482 C 35.635 57.017,35.483 62.512,32.580 66.285 C 30.468 69.030,30.384 69.329,31.506 70.114 C 32.619 70.894,33.163 72.546,33.163 75.145 C 33.163 77.673,32.668 78.193,29.478 79.018 C 22.329 80.865,10.311 88.792,7.319 93.633 C 5.561 96.478,6.361 100.405,9.439 104.033 C 10.580 105.379,10.717 105.862,11.006 109.560 C 11.350 113.971,11.531 114.425,14.462 118.213 C 17.099 121.621,18.321 122.431,21.190 122.676 C 24.967 122.998,25.403 123.178,27.387 125.233 C 29.057 126.963,29.752 127.337,33.455 128.502 C 38.604 130.120,38.544 130.017,36.118 133.150 C 31.964 138.515,31.021 143.488,31.205 159.058 L 31.320 168.884 30.236 171.136 C 29.640 172.375,28.627 173.878,27.985 174.477 C 27.342 175.076,26.218 176.121,25.486 176.799 C 23.956 178.219,23.842 179.152,24.938 181.300 C 25.649 182.693,26.793 188.010,27.155 191.607 C 27.235 192.395,27.329 191.535,27.365 189.696 C 27.488 183.457,29.614 183.262,30.746 189.385 C 31.474 193.322,31.438 193.294,35.540 193.158 C 39.691 193.020,40.493 192.065,37.599 190.702 C 35.669 189.793,35.671 189.810,35.790 178.096 C 35.904 166.873,35.609 168.525,41.192 147.799 C 45.099 133.296,49.616 128.488,50.386 138.014 C 50.734 142.329,51.249 143.781,55.705 153.011 C 61.988 166.027,62.901 171.682,59.293 175.254 C 57.465 177.063,57.463 177.103,58.922 181.077 C 59.427 182.454,59.935 185.193,60.135 187.628 C 60.411 190.982,60.491 191.324,60.539 189.355 C 60.694 182.909,63.247 181.923,64.095 187.982 C 64.601 191.597,64.884 191.928,67.716 192.232 C 72.577 192.752,73.912 191.711,70.855 189.781 L 69.191 188.731 69.189 185.154 C 69.186 180.612,68.354 175.134,66.718 168.884 C 64.919 162.014,63.239 154.137,61.783 145.752 C 59.798 134.316,59.732 135.745,62.286 134.789 C 63.494 134.336,65.499 133.408,66.741 132.725 C 68.230 131.908,69.904 131.383,71.651 131.185 C 75.267 130.776,81.064 127.521,81.064 125.900 C 81.064 125.179,78.828 121.583,73.019 112.963 C 70.502 109.228,66.748 103.424,64.676 100.066 C 62.605 96.708,60.298 93.040,59.550 91.914 C 57.561 88.921,57.255 87.136,57.093 77.598 C 57.013 72.862,56.755 67.513,56.520 65.711 C 55.639 58.959,55.526 53.388,56.234 51.620 C 57.119 49.408,56.440 45.445,55.176 45.445 C 54.735 45.445,53.885 45.189,53.287 44.875 C 52.690 44.562,51.401 43.973,50.423 43.568 C 49.445 43.162,47.695 41.931,46.533 40.831 C 45.372 39.732,43.918 38.567,43.303 38.242 C 42.039 37.576,40.942 35.732,40.942 34.275 C 40.942 32.890,41.179 32.790,42.989 33.413 C 43.873 33.718,44.834 33.876,45.123 33.765 C 45.676 33.553,47.928 29.209,47.911 28.386 C 47.906 28.124,48.408 27.538,49.028 27.084 L 50.154 26.259 49.145 24.400 C 48.187 22.635,48.164 22.440,48.701 20.584 C 49.012 19.508,49.346 17.845,49.444 16.888 C 49.620 15.169,50.690 14.439,51.386 15.565 C 51.527 15.793,51.824 15.869,52.044 15.733 C 52.297 15.577,52.269 15.273,51.970 14.912 C 51.597 14.463,51.648 14.280,52.203 14.067 C 53.017 13.755,51.587 12.734,50.296 12.706 C 49.920 12.698,49.430 12.147,49.191 11.464 C 48.849 10.482,48.526 10.235,47.584 10.235 C 46.936 10.235,45.230 9.758,43.793 9.174 C 42.208 8.530,40.000 8.023,38.182 7.886 C 36.533 7.761,35.087 7.502,34.968 7.309 C 34.849 7.117,34.429 6.960,34.034 6.960 C 33.639 6.960,32.786 6.407,32.139 5.732 C 31.001 4.544,29.478 4.075,29.478 4.913 C 29.478 5.138,29.191 5.322,28.840 5.322 C 28.489 5.322,28.303 5.157,28.428 4.956 C 28.553 4.754,28.364 4.478,28.009 4.342 C 26.999 3.954,25.049 4.051,24.770 4.504 M32.486 7.015 C 33.914 8.192,34.374 8.323,38.004 8.584 C 40.717 8.779,42.571 9.149,43.887 9.757 C 44.945 10.245,46.089 10.645,46.430 10.645 C 47.155 10.645,48.780 12.264,48.504 12.711 C 48.401 12.878,48.612 13.129,48.974 13.268 C 49.435 13.445,49.510 13.672,49.225 14.027 C 49.001 14.306,48.714 15.640,48.587 16.991 C 48.460 18.342,48.232 20.306,48.080 21.355 C 47.872 22.793,47.967 23.496,48.467 24.210 C 49.286 25.379,49.327 26.612,48.548 26.612 C 48.227 26.612,47.751 27.263,47.488 28.058 C 46.384 31.403,45.009 33.259,43.854 32.960 C 40.968 32.214,40.320 32.425,40.417 34.080 C 40.536 36.113,41.519 37.927,42.893 38.652 C 43.509 38.976,44.958 40.137,46.114 41.232 C 48.112 43.123,52.910 45.855,54.234 45.855 C 55.723 45.855,56.519 49.979,55.434 52.077 C 54.746 53.407,54.840 55.444,56.139 67.349 C 56.384 69.601,56.618 75.128,56.658 79.632 C 56.749 89.876,55.788 87.819,71.853 112.180 C 79.008 123.030,80.258 125.067,80.223 125.817 C 80.158 127.216,75.540 129.701,72.096 130.189 C 68.838 130.651,68.378 130.805,65.876 132.272 C 64.841 132.879,63.551 133.505,63.010 133.664 C 59.359 134.735,59.061 135.243,59.947 138.880 C 60.292 140.295,60.859 143.296,61.208 145.548 C 62.072 151.123,64.066 160.661,65.916 168.066 C 67.907 176.033,68.318 178.512,68.618 184.362 L 68.865 189.194 70.539 190.298 L 72.212 191.402 69.588 191.526 C 65.625 191.714,65.255 191.537,64.950 189.309 C 64.281 184.429,62.668 182.116,60.993 183.633 C 60.208 184.343,60.184 184.334,60.184 183.311 C 60.184 182.732,59.816 181.399,59.365 180.348 C 58.272 177.796,58.331 176.989,59.707 175.702 C 63.511 172.142,62.677 166.074,56.673 153.631 C 51.503 142.918,51.130 141.879,50.867 137.446 C 50.354 128.832,45.007 132.043,42.147 142.682 C 41.966 143.357,41.333 145.568,40.741 147.595 C 39.431 152.076,37.673 158.542,37.233 160.491 C 35.188 169.556,35.191 169.523,35.305 180.034 L 35.415 190.173 36.949 190.992 C 39.324 192.261,38.939 192.836,35.722 192.829 C 32.186 192.821,32.114 192.763,31.318 189.264 C 30.371 185.098,28.547 183.051,27.479 184.954 C 27.105 185.619,27.058 185.612,26.819 184.852 C 26.677 184.401,26.204 183.108,25.768 181.978 C 24.603 178.961,24.718 177.863,26.305 176.820 C 31.100 173.670,31.869 170.929,31.862 157.011 C 31.855 141.978,32.867 137.406,37.254 132.654 C 39.746 129.954,39.277 129.441,32.549 127.504 C 30.685 126.967,29.594 126.317,28.028 124.807 C 25.814 122.672,24.217 122.008,21.292 122.003 C 16.714 121.997,11.464 114.987,11.464 108.882 C 11.464 105.624,10.957 104.383,8.593 101.846 C 6.639 99.748,6.578 95.485,8.467 93.009 C 11.917 88.486,24.097 80.704,29.273 79.715 C 29.949 79.586,31.192 79.189,32.037 78.834 L 33.572 78.188 33.572 74.633 C 33.572 71.353,33.489 70.992,32.495 69.955 L 31.419 68.831 33.300 66.329 C 35.392 63.545,35.845 61.969,35.454 58.831 C 35.308 57.661,35.027 55.138,34.829 53.224 C 34.631 51.310,34.064 48.288,33.569 46.507 C 32.757 43.587,32.719 43.035,33.179 40.864 C 34.060 36.715,33.499 28.451,32.244 27.087 C 29.021 23.585,28.250 22.098,28.250 19.388 C 28.250 17.759,28.080 16.786,27.797 16.786 C 27.547 16.786,27.444 16.524,27.567 16.204 C 27.689 15.885,27.341 15.138,26.791 14.546 C 25.649 13.313,25.558 12.629,26.363 11.347 C 26.756 10.723,26.850 9.866,26.667 8.598 C 26.221 5.514,29.563 4.606,32.486 7.015 M40.535 61.205 C 40.019 61.826,40.064 63.137,40.785 68.475 C 41.025 70.247,40.974 70.420,40.210 70.420 C 39.595 70.420,39.205 70.883,38.746 72.160 C 37.182 76.510,37.504 77.160,40.523 75.746 C 45.756 73.295,46.688 70.427,44.039 64.921 C 42.319 61.345,41.308 60.273,40.535 61.205 M43.309 64.717 C 45.883 69.756,45.538 71.986,41.826 74.308 C 40.566 75.097,39.298 75.742,39.010 75.742 C 37.621 75.742,39.206 71.369,40.670 71.160 C 41.642 71.022,41.627 71.240,41.100 64.942 C 40.764 60.927,41.343 60.868,43.309 64.717 " stroke="none" fill="#333333" fill-rule="evenodd"></path><path id="path2" d="M23.369 3.954 C 21.230 5.452,21.053 7.918,22.955 9.713 C 24.302 10.985,24.464 11.667,23.508 12.034 C 22.426 12.449,22.108 12.320,22.108 11.464 C 22.108 11.013,21.935 10.645,21.723 10.645 C 20.919 10.645,20.837 11.541,21.544 12.608 C 21.948 13.217,22.230 14.110,22.170 14.593 C 21.982 16.111,23.218 18.381,24.713 19.263 C 26.719 20.447,26.867 21.192,25.397 22.709 C 23.436 24.732,23.660 26.424,25.641 24.543 C 26.544 23.685,27.196 23.323,27.304 23.619 C 27.402 23.886,28.122 24.943,28.903 25.966 C 30.267 27.751,30.298 27.868,29.667 28.830 C 28.993 29.858,29.392 31.525,30.311 31.525 C 30.528 31.525,30.706 31.894,30.706 32.344 C 30.706 33.272,31.131 33.393,31.853 32.671 C 32.513 32.011,32.536 39.450,31.879 41.333 C 31.416 42.664,31.832 45.793,32.799 48.243 C 33.137 49.099,33.513 51.878,34.257 59.022 C 34.586 62.184,34.329 62.931,31.731 66.360 C 28.932 70.055,28.911 71.224,31.627 72.187 C 32.200 72.390,32.344 72.926,32.344 74.861 C 32.344 77.530,32.463 77.414,28.454 78.638 C 19.495 81.375,8.392 89.468,5.355 95.477 C 4.237 97.688,5.393 102.352,7.564 104.391 C 8.132 104.926,8.598 105.688,8.598 106.086 C 8.598 106.484,8.803 106.936,9.054 107.092 C 9.333 107.264,9.431 108.081,9.307 109.184 C 8.985 112.043,10.769 117.667,12.640 119.689 C 15.170 122.423,18.968 124.864,20.700 124.868 C 21.868 124.871,23.068 125.298,24.741 126.305 C 26.050 127.093,27.219 127.738,27.340 127.738 C 27.460 127.738,28.162 128.199,28.900 128.762 C 29.638 129.324,30.508 129.785,30.834 129.785 C 31.159 129.785,31.654 130.061,31.934 130.399 C 32.215 130.737,32.928 131.016,33.520 131.020 C 35.512 131.031,35.935 131.626,35.039 133.155 C 31.215 139.679,30.730 142.407,30.586 158.240 C 30.485 169.338,30.452 169.756,29.544 171.350 C 28.272 173.585,26.582 175.464,25.550 175.792 C 23.535 176.431,23.342 178.723,24.935 183.086 C 25.458 184.518,25.890 187.001,26.056 189.534 C 26.294 193.172,26.414 193.654,27.083 193.654 C 27.741 193.654,27.840 193.310,27.840 191.044 C 27.840 184.593,29.532 184.510,30.513 190.913 C 30.907 193.483,31.832 194.064,35.517 194.057 C 40.159 194.048,41.554 191.954,38.022 190.297 L 36.534 189.599 36.350 181.289 C 36.174 173.329,36.411 169.162,37.244 165.609 C 37.816 163.167,39.980 154.655,41.097 150.452 C 43.112 142.874,46.467 134.270,47.396 134.298 C 48.724 134.338,49.566 135.861,49.743 138.544 C 49.956 141.780,50.748 144.075,53.918 150.647 C 58.988 161.158,59.851 163.363,60.586 167.700 C 61.156 171.056,60.721 172.885,58.906 174.774 C 57.061 176.694,56.954 177.573,58.191 180.640 C 58.820 182.200,59.135 184.120,59.317 187.513 C 59.551 191.864,59.632 192.221,60.389 192.221 C 61.120 192.221,61.219 191.913,61.312 189.355 C 61.537 183.165,62.773 183.058,63.675 189.150 C 64.181 192.569,64.563 192.835,68.969 192.835 C 73.818 192.835,75.046 191.092,71.412 189.368 C 70.641 189.002,69.999 188.665,69.985 188.619 C 69.971 188.574,69.873 186.418,69.767 183.828 C 69.538 178.228,68.826 174.213,66.426 164.995 C 65.344 160.838,64.495 156.689,61.463 140.741 C 60.604 136.222,60.517 136.418,63.869 135.289 C 65.107 134.872,66.397 134.320,66.735 134.064 C 67.073 133.807,69.191 133.167,71.443 132.640 C 76.104 131.551,77.838 130.917,78.571 130.034 C 78.853 129.695,79.677 129.222,80.403 128.982 C 82.495 128.291,83.142 126.035,81.673 124.548 C 80.772 123.636,75.337 115.527,67.758 103.787 C 65.841 100.818,59.171 90.045,58.507 88.843 C 58.089 88.089,57.924 85.829,57.877 80.246 C 57.842 76.080,57.623 70.737,57.390 68.373 C 56.058 54.833,55.987 53.238,56.668 52.198 C 57.115 51.517,57.318 50.253,57.318 48.165 C 57.318 44.923,57.128 44.626,55.053 44.626 C 54.520 44.626,53.914 44.322,53.706 43.951 C 53.464 43.519,53.019 43.356,52.471 43.500 C 51.403 43.779,48.282 41.887,46.163 39.676 C 45.319 38.796,44.469 38.076,44.274 38.076 C 43.529 38.076,41.760 35.873,41.760 34.944 C 41.760 34.045,41.879 33.991,43.344 34.225 C 45.206 34.523,46.673 33.878,46.673 32.763 C 46.673 32.334,46.846 31.876,47.057 31.746 C 47.491 31.478,48.721 29.135,48.721 28.577 C 48.721 28.375,49.227 27.774,49.846 27.239 L 50.972 26.269 49.762 24.025 C 48.675 22.010,48.802 19.254,49.913 20.759 C 50.248 21.213,51.898 22.108,52.400 22.108 C 53.161 22.108,52.827 20.506,51.969 20.047 C 50.977 19.516,51.564 18.424,52.842 18.424 C 55.629 18.424,55.161 13.346,52.292 12.459 C 51.792 12.304,50.910 11.620,50.333 10.938 C 49.543 10.005,48.786 9.622,47.263 9.385 C 46.150 9.212,44.227 8.694,42.989 8.233 C 41.750 7.773,39.762 7.390,38.571 7.383 C 36.337 7.369,34.088 6.485,32.523 5.004 C 30.667 3.248,25.262 2.628,23.369 3.954 M28.009 4.342 C 28.364 4.478,28.553 4.754,28.428 4.956 C 28.303 5.157,28.489 5.322,28.840 5.322 C 29.191 5.322,29.478 5.138,29.478 4.913 C 29.478 4.075,31.001 4.544,32.139 5.732 C 32.786 6.407,33.639 6.960,34.034 6.960 C 34.429 6.960,34.849 7.117,34.968 7.309 C 35.087 7.502,36.533 7.761,38.182 7.886 C 40.000 8.023,42.208 8.530,43.793 9.174 C 45.230 9.758,46.936 10.235,47.584 10.235 C 48.526 10.235,48.849 10.482,49.191 11.464 C 49.430 12.147,49.920 12.698,50.296 12.706 C 51.587 12.734,53.017 13.755,52.203 14.067 C 51.648 14.280,51.597 14.463,51.970 14.912 C 52.269 15.273,52.297 15.577,52.044 15.733 C 51.824 15.869,51.527 15.793,51.386 15.565 C 50.690 14.439,49.620 15.169,49.444 16.888 C 49.346 17.845,49.012 19.508,48.701 20.584 C 48.164 22.440,48.187 22.635,49.145 24.400 L 50.154 26.259 49.028 27.084 C 48.408 27.538,47.906 28.124,47.911 28.386 C 47.928 29.209,45.676 33.553,45.123 33.765 C 44.834 33.876,43.873 33.718,42.989 33.413 C 41.179 32.790,40.942 32.890,40.942 34.275 C 40.942 35.732,42.039 37.576,43.303 38.242 C 43.918 38.567,45.372 39.732,46.533 40.831 C 47.695 41.931,49.445 43.162,50.423 43.568 C 51.401 43.973,52.690 44.562,53.287 44.875 C 53.885 45.189,54.735 45.445,55.176 45.445 C 56.440 45.445,57.119 49.408,56.234 51.620 C 55.526 53.388,55.639 58.959,56.520 65.711 C 56.755 67.513,57.013 72.862,57.093 77.598 C 57.255 87.136,57.561 88.921,59.550 91.914 C 60.298 93.040,62.605 96.708,64.676 100.066 C 66.748 103.424,70.502 109.228,73.019 112.963 C 78.828 121.583,81.064 125.179,81.064 125.900 C 81.064 127.521,75.267 130.776,71.651 131.185 C 69.904 131.383,68.230 131.908,66.741 132.725 C 65.499 133.408,63.494 134.336,62.286 134.789 C 59.732 135.745,59.798 134.316,61.783 145.752 C 63.239 154.137,64.919 162.014,66.718 168.884 C 68.354 175.134,69.186 180.612,69.189 185.154 L 69.191 188.731 70.855 189.781 C 73.912 191.711,72.577 192.752,67.716 192.232 C 64.884 191.928,64.601 191.597,64.095 187.982 C 63.247 181.923,60.694 182.909,60.539 189.355 C 60.491 191.324,60.411 190.982,60.135 187.628 C 59.935 185.193,59.427 182.454,58.922 181.077 C 57.463 177.103,57.465 177.063,59.293 175.254 C 62.901 171.682,61.988 166.027,55.705 153.011 C 51.249 143.781,50.734 142.329,50.386 138.014 C 49.616 128.488,45.099 133.296,41.192 147.799 C 35.609 168.525,35.904 166.873,35.790 178.096 C 35.671 189.810,35.669 189.793,37.599 190.702 C 40.493 192.065,39.691 193.020,35.540 193.158 C 31.438 193.294,31.474 193.322,30.746 189.385 C 29.614 183.262,27.488 183.457,27.365 189.696 C 27.329 191.535,27.235 192.395,27.155 191.607 C 26.793 188.010,25.649 182.693,24.938 181.300 C 23.842 179.152,23.956 178.219,25.486 176.799 C 26.218 176.121,27.342 175.076,27.985 174.477 C 28.627 173.878,29.640 172.375,30.236 171.136 L 31.320 168.884 31.205 159.058 C 31.021 143.488,31.964 138.515,36.118 133.150 C 38.544 130.017,38.604 130.120,33.455 128.502 C 29.752 127.337,29.057 126.963,27.387 125.233 C 25.403 123.178,24.967 122.998,21.190 122.676 C 18.321 122.431,17.099 121.621,14.462 118.213 C 11.531 114.425,11.350 113.971,11.006 109.560 C 10.717 105.862,10.580 105.379,9.439 104.033 C 6.361 100.405,5.561 96.478,7.319 93.633 C 10.311 88.792,22.329 80.865,29.478 79.018 C 32.668 78.193,33.163 77.673,33.163 75.145 C 33.163 72.546,32.619 70.894,31.506 70.114 C 30.384 69.329,30.468 69.030,32.580 66.285 C 35.483 62.512,35.635 57.017,33.101 47.482 C 32.351 44.659,32.318 43.901,32.703 38.414 C 33.226 30.957,32.458 28.300,30.379 30.379 C 29.997 30.761,29.887 30.672,29.887 29.981 C 29.887 29.328,30.229 29.003,31.175 28.758 L 32.462 28.425 29.914 25.383 C 27.474 22.469,27.370 22.254,27.450 20.280 C 27.564 17.432,27.516 17.195,26.817 17.195 C 26.282 17.195,25.998 16.448,26.154 15.455 C 26.181 15.287,25.834 15.148,25.384 15.148 C 24.792 15.148,24.565 14.875,24.565 14.163 C 24.565 13.355,24.400 13.214,23.644 13.379 C 22.731 13.579,22.731 13.573,23.719 12.771 C 24.587 12.065,24.724 11.590,24.789 9.057 C 24.831 7.436,25.092 5.879,25.379 5.533 C 25.804 5.021,25.774 4.913,25.205 4.913 C 24.826 4.913,24.631 4.729,24.770 4.504 C 25.049 4.051,26.999 3.954,28.009 4.342 M172.253 35.505 C 172.980 35.596,174.269 35.597,175.119 35.509 C 175.968 35.420,175.374 35.346,173.797 35.344 C 172.221 35.342,171.526 35.415,172.253 35.505 M381.874 35.505 C 382.601 35.596,383.891 35.597,384.740 35.509 C 385.590 35.420,384.995 35.346,383.419 35.344 C 381.842 35.342,381.147 35.415,381.874 35.505 M377.341 36.777 C 376.722 37.461,376.663 40.477,376.663 71.719 L 376.663 105.912 377.584 106.692 C 378.505 107.471,378.505 107.471,377.789 106.621 C 376.714 105.344,376.676 37.964,377.750 36.777 C 378.123 36.366,378.336 36.029,378.223 36.029 C 378.111 36.029,377.714 36.366,377.341 36.777 M389.960 71.648 C 389.960 90.676,390.010 98.460,390.072 88.946 C 390.133 79.432,390.133 63.864,390.072 54.350 C 390.010 44.836,389.960 52.620,389.960 71.648 M167.237 71.648 C 167.237 90.450,167.288 98.142,167.349 88.741 C 167.410 79.340,167.410 63.956,167.349 54.555 C 167.288 45.154,167.237 52.845,167.237 71.648 M238.415 44.012 C 238.417 45.589,238.491 46.183,238.579 45.334 C 238.668 44.484,238.666 43.195,238.576 42.468 C 238.485 41.741,238.413 42.436,238.415 44.012 M351.369 49.348 C 351.982 49.992,352.556 50.437,352.646 50.337 C 352.736 50.236,352.235 49.709,351.533 49.165 L 350.256 48.177 351.369 49.348 M267.251 56.789 C 267.761 56.887,268.498 56.883,268.889 56.781 C 269.281 56.678,268.864 56.598,267.963 56.603 C 267.062 56.607,266.742 56.691,267.251 56.789 M320.066 56.789 C 320.575 56.887,321.312 56.883,321.704 56.781 C 322.095 56.678,321.679 56.598,320.778 56.603 C 319.877 56.607,319.557 56.691,320.066 56.789 M263.976 57.198 C 264.485 57.296,265.222 57.293,265.614 57.190 C 266.005 57.088,265.589 57.008,264.688 57.012 C 263.787 57.017,263.467 57.101,263.976 57.198 M270.727 57.191 C 271.121 57.294,271.766 57.294,272.160 57.191 C 272.554 57.088,272.231 57.004,271.443 57.004 C 270.655 57.004,270.333 57.088,270.727 57.191 M229.591 57.619 C 230.554 57.705,232.028 57.704,232.867 57.616 C 233.705 57.528,232.917 57.457,231.116 57.459 C 229.314 57.460,228.628 57.532,229.591 57.619 M355.691 57.619 C 356.654 57.705,358.128 57.704,358.967 57.616 C 359.805 57.528,359.017 57.457,357.216 57.459 C 355.415 57.460,354.729 57.532,355.691 57.619 M237.653 82.497 C 237.653 95.333,237.705 100.524,237.768 94.034 C 237.832 87.544,237.832 77.043,237.768 70.698 C 237.705 64.352,237.653 69.662,237.653 82.497 M350.652 82.702 C 350.652 95.425,350.704 100.629,350.767 94.268 C 350.831 87.907,350.831 77.497,350.767 71.136 C 350.704 64.775,350.652 69.980,350.652 82.702 M292.045 62.641 C 292.045 64.104,292.119 64.703,292.210 63.971 C 292.301 63.240,292.301 62.042,292.210 61.310 C 292.119 60.578,292.045 61.177,292.045 62.641 M41.100 64.942 C 41.627 71.240,41.642 71.022,40.670 71.160 C 39.206 71.369,37.621 75.742,39.010 75.742 C 39.298 75.742,40.566 75.097,41.826 74.308 C 45.538 71.986,45.883 69.756,43.309 64.717 C 41.343 60.868,40.764 60.927,41.100 64.942 M43.166 65.693 C 44.693 68.813,44.713 70.880,43.232 72.427 C 42.026 73.685,39.864 74.801,39.445 74.382 C 38.885 73.822,39.752 72.960,41.135 72.701 C 42.977 72.355,43.209 71.797,42.450 69.537 C 40.770 64.533,41.275 61.826,43.166 65.693 M314.534 66.624 C 315.379 66.712,316.760 66.712,317.605 66.624 C 318.449 66.535,317.758 66.463,316.070 66.463 C 314.381 66.463,313.690 66.535,314.534 66.624 M285.176 67.935 C 285.047 68.144,285.156 68.449,285.420 68.612 C 285.712 68.793,285.790 68.731,285.619 68.456 C 285.429 68.148,286.165 67.956,287.910 67.857 L 290.481 67.712 287.946 67.633 C 286.552 67.589,285.306 67.725,285.176 67.935 M182.987 71.955 L 181.576 73.490 183.112 72.079 C 183.956 71.303,184.647 70.612,184.647 70.544 C 184.647 70.231,184.300 70.526,182.987 71.955 M275.239 73.695 C 275.239 74.708,275.319 75.123,275.417 74.616 C 275.514 74.110,275.514 73.280,275.417 72.774 C 275.319 72.267,275.239 72.682,275.239 73.695 M260.075 73.695 C 260.075 74.483,260.159 74.806,260.262 74.411 C 260.365 74.017,260.365 73.373,260.262 72.979 C 260.159 72.584,260.075 72.907,260.075 73.695 M337.955 89.662 C 337.955 98.557,338.009 102.195,338.075 97.748 C 338.141 93.301,338.141 86.024,338.075 81.576 C 338.009 77.129,337.955 80.768,337.955 89.662 M315.967 78.085 C 316.699 78.176,317.897 78.176,318.628 78.085 C 319.360 77.995,318.762 77.920,317.298 77.920 C 315.834 77.920,315.235 77.995,315.967 78.085 M136.887 80.797 C 136.922 81.394,137.088 81.883,137.257 81.883 C 137.673 81.883,137.634 80.990,137.188 80.285 C 136.927 79.874,136.842 80.020,136.887 80.797 M267.247 81.353 C 267.753 81.451,268.582 81.451,269.089 81.353 C 269.596 81.256,269.181 81.176,268.168 81.176 C 267.155 81.176,266.740 81.256,267.247 81.353 M317.406 86.271 C 318.028 86.365,318.949 86.363,319.453 86.266 C 319.956 86.169,319.447 86.092,318.321 86.095 C 317.195 86.098,316.783 86.177,317.406 86.271 M295.694 93.756 C 295.694 94.545,295.778 94.867,295.881 94.473 C 295.984 94.079,295.984 93.434,295.881 93.040 C 295.778 92.646,295.694 92.968,295.694 93.756 M195.880 95.496 L 194.678 96.827 196.008 95.625 C 197.248 94.504,197.527 94.166,197.211 94.166 C 197.140 94.166,196.541 94.765,195.880 95.496 M266.018 96.100 C 266.750 96.190,267.948 96.190,268.680 96.100 C 269.411 96.009,268.813 95.935,267.349 95.935 C 265.885 95.935,265.287 96.009,266.018 96.100 M274.821 96.495 C 275.215 96.598,275.860 96.598,276.254 96.495 C 276.648 96.392,276.325 96.308,275.537 96.308 C 274.749 96.308,274.427 96.392,274.821 96.495 M327.235 104.811 C 327.235 105.824,327.315 106.238,327.413 105.732 C 327.510 105.225,327.510 104.396,327.413 103.889 C 327.315 103.383,327.235 103.797,327.235 104.811 M97.898 105.477 C 97.872 105.956,98.173 106.601,98.567 106.910 C 99.190 107.399,99.223 107.392,98.816 106.858 C 98.559 106.520,98.258 105.875,98.147 105.425 C 97.956 104.647,97.943 104.650,97.898 105.477 M193.347 108.778 C 193.741 108.881,194.386 108.881,194.780 108.778 C 195.174 108.675,194.852 108.590,194.063 108.590 C 193.275 108.590,192.953 108.675,193.347 108.778 M311.468 108.785 C 311.978 108.883,312.715 108.879,313.106 108.777 C 313.498 108.674,313.081 108.594,312.180 108.599 C 311.279 108.603,310.959 108.687,311.468 108.785 M266.428 117.389 C 267.160 117.480,268.357 117.480,269.089 117.389 C 269.821 117.298,269.222 117.224,267.758 117.224 C 266.295 117.224,265.696 117.298,266.428 117.389 M26.203 124.950 C 26.203 125.488,25.272 125.151,25.068 124.539 C 24.968 124.240,25.156 124.148,25.554 124.301 C 25.911 124.438,26.203 124.730,26.203 124.950 M264.995 126.401 C 266.064 126.486,267.815 126.486,268.884 126.401 C 269.954 126.317,269.079 126.248,266.940 126.248 C 264.800 126.248,263.925 126.317,264.995 126.401 M300.102 141.614 C 301.111 141.894,301.128 141.969,301.241 146.691 C 301.305 149.327,301.489 151.485,301.651 151.485 C 302.111 151.486,301.738 142.353,301.253 141.770 C 301.015 141.483,300.429 141.267,299.950 141.290 C 299.181 141.326,299.199 141.364,300.102 141.614 M339.816 141.615 L 340.839 141.899 341.053 154.368 L 341.267 166.837 341.360 154.534 C 341.458 141.596,341.407 141.203,339.632 141.290 C 338.929 141.324,338.958 141.377,339.816 141.615 M337.954 142.174 C 337.845 142.458,337.805 148.216,337.865 154.969 L 337.974 167.247 338.179 154.452 C 338.291 147.415,338.331 141.658,338.268 141.658 C 338.204 141.658,338.063 141.890,337.954 142.174 M163.767 149.720 C 164.330 149.835,164.942 150.141,165.128 150.400 C 165.355 150.714,165.412 150.666,165.302 150.256 C 165.208 149.909,164.615 149.613,163.940 149.577 C 162.909 149.521,162.885 149.541,163.767 149.720 M198.465 149.740 C 199.872 149.820,202.175 149.820,203.582 149.740 C 204.990 149.660,203.838 149.595,201.024 149.595 C 198.209 149.595,197.057 149.660,198.465 149.740 M254.356 149.731 C 254.978 149.825,255.899 149.822,256.403 149.725 C 256.906 149.628,256.397 149.551,255.271 149.554 C 254.145 149.557,253.733 149.637,254.356 149.731 M162.293 155.783 C 162.293 159.161,162.357 160.488,162.434 158.733 C 162.511 156.977,162.510 154.214,162.433 152.591 C 162.355 150.969,162.292 152.405,162.293 155.783 M389.125 151.177 L 387.922 152.508 389.253 151.305 C 389.985 150.644,390.583 150.045,390.583 149.975 C 390.583 149.658,390.246 149.937,389.125 151.177 M132.011 151.586 L 130.809 152.917 132.240 151.689 C 133.027 151.013,133.748 150.415,133.843 150.358 C 133.938 150.302,133.835 150.256,133.615 150.256 C 133.394 150.256,132.672 150.855,132.011 151.586 M319.723 151.382 L 318.731 152.508 319.959 151.484 C 320.635 150.921,321.264 150.415,321.358 150.358 C 321.452 150.302,321.346 150.256,321.122 150.256 C 320.899 150.256,320.269 150.763,319.723 151.382 M329.171 150.384 C 329.171 150.454,329.770 151.053,330.502 151.715 L 331.832 152.917 330.630 151.586 C 329.509 150.346,329.171 150.068,329.171 150.384 M154.102 156.192 C 154.103 159.345,154.167 160.580,154.245 158.938 C 154.323 157.296,154.322 154.716,154.244 153.206 C 154.165 151.696,154.102 153.040,154.102 156.192 M204.096 152.300 C 203.958 152.523,204.048 153.030,204.296 153.426 C 204.692 154.057,204.718 154.036,204.505 153.255 C 204.315 152.556,204.465 152.326,205.202 152.185 C 206.121 152.009,206.122 152.004,205.244 151.949 C 204.751 151.919,204.234 152.076,204.096 152.300 M220.265 153.429 C 220.801 154.161,221.303 154.759,221.381 154.759 C 221.692 154.759,220.677 153.224,220.006 152.679 C 219.563 152.320,219.662 152.605,220.265 153.429 M393.142 152.585 C 393.536 152.688,394.181 152.688,394.575 152.585 C 394.969 152.482,394.647 152.398,393.859 152.398 C 393.071 152.398,392.748 152.482,393.142 152.585 M350.462 154.144 C 349.934 154.706,349.580 155.234,349.674 155.318 C 349.769 155.402,350.275 154.942,350.799 154.296 C 351.971 152.851,351.765 152.757,350.462 154.144 M309.595 160.774 C 309.553 164.195,309.657 167.080,309.826 167.185 C 309.995 167.290,310.085 165.412,310.025 163.012 C 309.834 155.252,309.672 154.411,309.595 160.774 M241.222 160.979 C 241.180 164.287,241.285 167.080,241.453 167.185 C 241.622 167.290,241.712 165.504,241.652 163.217 C 241.457 155.691,241.299 154.871,241.222 160.979 M312.793 161.189 C 312.681 164.612,312.733 167.269,312.908 167.093 C 313.084 166.917,313.175 164.116,313.112 160.869 L 312.996 154.964 312.793 161.189 M232.957 161.393 C 232.845 164.704,232.897 167.269,233.072 167.093 C 233.248 166.916,233.339 164.208,233.276 161.073 L 233.160 155.374 232.957 161.393 M301.329 161.393 C 301.217 164.704,301.269 167.269,301.445 167.093 C 301.620 166.916,301.712 164.208,301.648 161.073 L 301.532 155.374 301.329 161.393 M285.049 157.216 C 285.049 158.004,285.133 158.327,285.236 157.932 C 285.339 157.538,285.339 156.894,285.236 156.499 C 285.133 156.105,285.049 156.428,285.049 157.216 M388.125 161.803 C 388.014 164.889,388.066 167.269,388.242 167.092 C 388.418 166.915,388.509 164.391,388.445 161.482 L 388.328 156.192 388.125 161.803 M209.323 158.854 C 209.323 159.867,209.403 160.281,209.501 159.775 C 209.598 159.268,209.598 158.439,209.501 157.932 C 209.403 157.426,209.323 157.840,209.323 158.854 M129.487 159.263 C 129.487 160.276,129.567 160.691,129.665 160.184 C 129.762 159.678,129.762 158.849,129.665 158.342 C 129.567 157.835,129.487 158.250,129.487 159.263 M349.642 161.989 C 349.642 162.213,350.148 162.842,350.768 163.388 L 351.894 164.381 350.870 163.153 C 350.307 162.477,349.800 161.847,349.744 161.754 C 349.688 161.660,349.642 161.766,349.642 161.989 M199.898 164.049 C 200.292 164.152,200.937 164.152,201.331 164.049 C 201.725 163.946,201.402 163.862,200.614 163.862 C 199.826 163.862,199.504 163.946,199.898 164.049 M318.117 164.304 C 318.117 164.375,318.715 164.973,319.447 165.635 L 320.778 166.837 319.575 165.507 C 318.455 164.266,318.117 163.988,318.117 164.304 M217.508 165.289 C 218.131 165.383,219.052 165.380,219.555 165.283 C 220.059 165.186,219.550 165.109,218.424 165.112 C 217.298 165.115,216.886 165.195,217.508 165.289 M278.102 165.289 C 278.724 165.383,279.645 165.380,280.149 165.283 C 280.652 165.186,280.143 165.109,279.017 165.112 C 277.892 165.115,277.480 165.195,278.102 165.289 M325.384 165.284 C 325.890 165.381,326.720 165.381,327.226 165.284 C 327.733 165.186,327.318 165.106,326.305 165.106 C 325.292 165.106,324.877 165.186,325.384 165.284 M373.286 165.284 C 373.792 165.381,374.621 165.381,375.128 165.284 C 375.635 165.186,375.220 165.106,374.207 165.106 C 373.193 165.106,372.779 165.186,373.286 165.284 M136.438 167.745 C 137.057 167.838,138.071 167.838,138.690 167.745 C 139.309 167.651,138.802 167.574,137.564 167.574 C 136.325 167.574,135.819 167.651,136.438 167.745 M156.300 167.741 C 156.809 167.839,157.546 167.835,157.937 167.733 C 158.329 167.630,157.912 167.550,157.011 167.555 C 156.111 167.559,155.790 167.643,156.300 167.741 M216.684 167.745 C 217.303 167.838,218.316 167.838,218.936 167.745 C 219.555 167.651,219.048 167.574,217.810 167.574 C 216.571 167.574,216.064 167.651,216.684 167.745 M277.277 167.745 C 277.897 167.838,278.910 167.838,279.529 167.745 C 280.148 167.651,279.642 167.574,278.403 167.574 C 277.165 167.574,276.658 167.651,277.277 167.745 M324.360 167.745 C 324.980 167.838,325.993 167.838,326.612 167.745 C 327.231 167.651,326.725 167.574,325.486 167.574 C 324.248 167.574,323.741 167.651,324.360 167.745 M354.048 167.741 C 354.557 167.839,355.294 167.835,355.685 167.733 C 356.077 167.630,355.660 167.550,354.759 167.555 C 353.859 167.559,353.538 167.643,354.048 167.741 M372.262 167.745 C 372.881 167.838,373.895 167.838,374.514 167.745 C 375.133 167.651,374.626 167.574,373.388 167.574 C 372.149 167.574,371.643 167.651,372.262 167.745 M197.447 171.839 C 198.069 171.933,198.990 171.931,199.494 171.834 C 199.997 171.737,199.488 171.660,198.362 171.663 C 197.236 171.666,196.824 171.745,197.447 171.839 M197.856 174.296 C 198.479 174.390,199.400 174.387,199.903 174.290 C 200.407 174.193,199.898 174.116,198.772 174.119 C 197.646 174.122,197.234 174.202,197.856 174.296 " stroke="none" fill="#a6a6a6" fill-rule="evenodd"></path><path id="path3" d="M0.000 102.354 L 0.000 204.708 200.000 204.708 L 400.000 204.708 400.000 102.354 L 400.000 0.000 200.000 0.000 L 0.000 0.000 0.000 102.354 M30.885 3.790 C 31.321 4.018,32.058 4.565,32.523 5.004 C 34.088 6.485,36.337 7.369,38.571 7.383 C 39.762 7.390,41.750 7.773,42.989 8.233 C 44.227 8.694,46.150 9.212,47.263 9.385 C 48.786 9.622,49.543 10.005,50.333 10.938 C 50.910 11.620,51.792 12.304,52.292 12.459 C 55.161 13.346,55.629 18.424,52.842 18.424 C 51.564 18.424,50.977 19.516,51.969 20.047 C 52.827 20.506,53.161 22.108,52.400 22.108 C 51.898 22.108,50.248 21.213,49.913 20.759 C 48.802 19.254,48.675 22.010,49.762 24.025 L 50.972 26.269 49.846 27.239 C 49.227 27.774,48.721 28.375,48.721 28.577 C 48.721 29.135,47.491 31.478,47.057 31.746 C 46.846 31.876,46.673 32.334,46.673 32.763 C 46.673 33.878,45.206 34.523,43.344 34.225 C 41.879 33.991,41.760 34.045,41.760 34.944 C 41.760 35.873,43.529 38.076,44.274 38.076 C 44.469 38.076,45.319 38.796,46.163 39.676 C 48.282 41.887,51.403 43.779,52.471 43.500 C 53.019 43.356,53.464 43.519,53.706 43.951 C 53.914 44.322,54.520 44.626,55.053 44.626 C 57.128 44.626,57.318 44.923,57.318 48.165 C 57.318 50.253,57.115 51.517,56.668 52.198 C 55.987 53.238,56.058 54.833,57.390 68.373 C 57.623 70.737,57.842 76.080,57.877 80.246 C 57.924 85.829,58.089 88.089,58.507 88.843 C 59.171 90.045,65.841 100.818,67.758 103.787 C 75.337 115.527,80.772 123.636,81.673 124.548 C 83.142 126.035,82.495 128.291,80.403 128.982 C 79.677 129.222,78.853 129.695,78.571 130.034 C 77.838 130.917,76.104 131.551,71.443 132.640 C 69.191 133.167,67.073 133.807,66.735 134.064 C 66.397 134.320,65.107 134.872,63.869 135.289 C 60.517 136.418,60.604 136.222,61.463 140.741 C 64.495 156.689,65.344 160.838,66.426 164.995 C 68.826 174.213,69.538 178.228,69.767 183.828 C 69.873 186.418,69.971 188.574,69.985 188.619 C 69.999 188.665,70.641 189.002,71.412 189.368 C 75.046 191.092,73.818 192.835,68.969 192.835 C 64.563 192.835,64.181 192.569,63.675 189.150 C 62.773 183.058,61.537 183.165,61.312 189.355 C 61.219 191.913,61.120 192.221,60.389 192.221 C 59.632 192.221,59.551 191.864,59.317 187.513 C 59.135 184.120,58.820 182.200,58.191 180.640 C 56.954 177.573,57.061 176.694,58.906 174.774 C 60.721 172.885,61.156 171.056,60.586 167.700 C 59.851 163.363,58.988 161.158,53.918 150.647 C 50.748 144.075,49.956 141.780,49.743 138.544 C 49.566 135.861,48.724 134.338,47.396 134.298 C 46.467 134.270,43.112 142.874,41.097 150.452 C 39.980 154.655,37.816 163.167,37.244 165.609 C 36.411 169.162,36.174 173.329,36.350 181.289 L 36.534 189.599 38.022 190.297 C 41.554 191.954,40.159 194.048,35.517 194.057 C 31.832 194.064,30.907 193.483,30.513 190.913 C 29.532 184.510,27.840 184.593,27.840 191.044 C 27.840 193.310,27.741 193.654,27.083 193.654 C 26.414 193.654,26.294 193.172,26.056 189.534 C 25.890 187.001,25.458 184.518,24.935 183.086 C 23.342 178.723,23.535 176.431,25.550 175.792 C 26.582 175.464,28.272 173.585,29.544 171.350 C 30.452 169.756,30.485 169.338,30.586 158.240 C 30.730 142.407,31.215 139.679,35.039 133.155 C 35.935 131.626,35.512 131.031,33.520 131.020 C 32.928 131.016,32.215 130.737,31.934 130.399 C 31.654 130.061,31.159 129.785,30.834 129.785 C 30.508 129.785,29.638 129.324,28.900 128.762 C 28.162 128.199,27.460 127.738,27.340 127.738 C 27.219 127.738,26.050 127.093,24.741 126.305 C 23.068 125.298,21.868 124.871,20.700 124.868 C 18.968 124.864,15.170 122.423,12.640 119.689 C 10.769 117.667,8.985 112.043,9.307 109.184 C 9.431 108.081,9.333 107.264,9.054 107.092 C 8.803 106.936,8.598 106.484,8.598 106.086 C 8.598 105.688,8.132 104.926,7.564 104.391 C 5.393 102.352,4.237 97.688,5.355 95.477 C 8.392 89.468,19.495 81.375,28.454 78.638 C 32.463 77.414,32.344 77.530,32.344 74.861 C 32.344 72.926,32.200 72.390,31.627 72.187 C 28.911 71.224,28.932 70.055,31.731 66.360 C 34.329 62.931,34.586 62.184,34.257 59.022 C 33.513 51.878,33.137 49.099,32.799 48.243 C 31.832 45.793,31.416 42.664,31.879 41.333 C 32.536 39.450,32.513 32.011,31.853 32.671 C 31.131 33.393,30.706 33.272,30.706 32.344 C 30.706 31.894,30.528 31.525,30.311 31.525 C 29.392 31.525,28.993 29.858,29.667 28.830 C 30.298 27.868,30.267 27.751,28.903 25.966 C 28.122 24.943,27.402 23.886,27.304 23.619 C 27.196 23.323,26.544 23.685,25.641 24.543 C 23.660 26.424,23.436 24.732,25.397 22.709 C 26.867 21.192,26.719 20.447,24.713 19.263 C 23.218 18.381,21.982 16.111,22.170 14.593 C 22.230 14.110,21.948 13.217,21.544 12.608 C 20.837 11.541,20.919 10.645,21.723 10.645 C 21.935 10.645,22.108 11.013,22.108 11.464 C 22.108 12.320,22.426 12.449,23.508 12.034 C 24.464 11.667,24.302 10.985,22.955 9.713 C 19.006 5.986,25.627 1.041,30.885 3.790 M177.671 35.654 C 180.601 36.283,180.553 36.039,180.553 50.127 C 180.553 57.009,180.705 62.641,180.891 62.641 C 181.077 62.641,181.675 62.163,182.221 61.580 C 189.838 53.438,205.081 55.585,210.375 65.546 C 214.457 73.228,214.964 87.281,211.479 96.174 C 206.360 109.235,191.439 112.775,181.115 103.378 L 178.710 101.189 178.506 103.911 C 178.240 107.437,177.725 107.749,172.430 107.588 C 166.422 107.405,167.042 111.544,167.042 71.648 C 167.042 39.965,167.089 37.702,167.758 36.914 C 169.091 35.345,173.574 34.775,177.671 35.654 M387.103 35.662 C 390.463 36.581,390.174 33.192,390.174 71.648 L 390.174 105.912 389.312 106.692 C 388.563 107.370,387.792 107.472,383.419 107.472 C 379.045 107.472,378.274 107.370,377.525 106.692 L 376.663 105.912 376.663 71.648 C 376.663 39.533,376.708 37.344,377.380 36.741 C 378.944 35.338,383.904 34.787,387.103 35.662 M236.156 38.086 C 239.789 40.302,239.571 48.179,235.824 50.051 C 233.944 50.990,228.136 51.044,226.231 50.140 C 222.594 48.414,222.575 40.144,226.203 38.032 C 228.080 36.939,234.330 36.973,236.156 38.086 M362.269 38.043 C 366.040 39.967,365.847 48.362,361.989 50.192 C 359.543 51.353,352.824 50.860,351.376 49.413 C 350.054 48.091,349.523 42.096,350.554 40.135 C 352.056 37.283,358.517 36.129,362.269 38.043 M136.042 40.674 C 137.791 41.405,138.004 41.881,142.111 54.248 C 142.784 56.274,143.497 58.301,143.695 58.751 C 143.894 59.202,144.458 60.768,144.949 62.231 C 145.439 63.695,146.941 68.025,148.285 71.853 C 149.630 75.681,150.883 79.273,151.070 79.836 C 151.257 80.399,152.539 84.084,153.918 88.025 C 161.342 109.231,161.473 107.832,152.084 107.606 C 145.253 107.442,145.848 107.993,142.932 99.141 C 140.323 91.220,142.216 92.062,127.344 92.209 L 115.691 92.323 114.995 94.371 C 114.613 95.496,113.624 98.536,112.799 101.126 C 110.782 107.454,110.798 107.440,105.107 107.605 C 100.362 107.743,98.429 107.366,97.989 106.218 C 97.740 105.571,99.932 98.623,103.985 87.206 C 105.144 83.941,106.717 79.427,107.480 77.175 C 108.244 74.923,109.995 69.857,111.371 65.916 C 115.367 54.476,117.527 48.229,118.094 46.469 C 119.234 42.929,120.096 41.305,121.135 40.740 C 122.618 39.934,134.150 39.883,136.042 40.674 M124.306 64.991 C 122.332 71.017,120.560 76.315,120.367 76.766 C 119.584 78.594,119.079 80.724,119.295 81.286 C 119.557 81.970,136.502 82.198,136.919 81.524 C 137.140 81.166,135.763 76.205,134.575 73.081 C 134.233 72.180,132.719 67.666,131.212 63.050 C 129.705 58.434,128.342 54.517,128.183 54.346 C 128.024 54.176,126.280 58.966,124.306 64.991 M273.695 57.341 C 274.596 57.543,278.889 57.712,283.235 57.718 L 291.137 57.728 291.730 59.148 C 293.760 64.005,291.920 67.963,287.632 67.963 L 285.342 67.963 286.062 69.294 C 287.328 71.636,287.041 77.751,285.509 81.064 C 282.104 88.430,270.977 92.628,262.564 89.721 L 260.441 88.987 259.763 90.246 C 257.544 94.369,259.390 95.378,270.379 96.047 C 286.596 97.036,291.505 100.235,291.505 109.817 C 291.505 122.816,273.777 130.167,255.271 124.842 C 244.977 121.880,242.324 111.783,249.893 104.371 L 251.985 102.322 250.609 101.245 C 246.688 98.176,246.694 91.493,250.623 86.723 C 252.394 84.572,252.431 84.455,251.619 83.553 C 248.285 79.850,247.678 71.561,250.342 66.117 C 252.911 60.866,257.379 58.141,265.711 56.746 C 267.022 56.527,271.575 56.866,273.695 57.341 M324.521 57.164 C 336.722 59.686,337.973 62.621,337.973 88.720 C 337.973 109.457,338.557 107.472,332.460 107.472 C 327.358 107.472,327.417 107.503,327.133 104.706 L 326.919 102.604 325.486 103.863 C 315.042 113.039,297.979 108.646,295.985 96.269 C 294.083 84.458,302.864 77.850,320.523 77.802 L 325.182 77.789 324.994 74.616 C 324.466 65.712,315.854 64.007,303.226 70.308 C 299.726 72.053,298.465 70.893,298.465 65.928 C 298.465 62.259,299.339 61.159,303.691 59.346 C 310.138 56.661,318.068 55.830,324.521 57.164 M234.674 57.577 C 238.090 58.142,237.871 56.438,237.871 82.468 C 237.871 110.322,238.632 107.472,231.195 107.472 C 223.540 107.472,224.360 110.451,224.360 82.635 C 224.360 59.797,224.376 59.344,225.186 58.645 C 226.555 57.464,230.980 56.967,234.674 57.577 M362.931 58.293 L 363.971 58.975 363.971 82.661 C 363.971 110.580,364.804 107.472,357.322 107.472 C 349.670 107.472,350.461 110.325,350.461 82.712 C 350.461 54.896,349.744 57.255,358.121 57.501 C 360.799 57.580,362.193 57.809,362.931 58.293 M41.564 65.609 C 41.723 66.791,42.122 68.559,42.450 69.537 C 43.209 71.797,42.977 72.355,41.135 72.701 C 39.752 72.960,38.885 73.822,39.445 74.382 C 39.864 74.801,42.026 73.685,43.232 72.427 C 44.713 70.880,44.693 68.813,43.166 65.693 C 41.770 62.838,41.186 62.807,41.564 65.609 M265.313 66.197 C 259.745 67.350,258.471 77.248,263.508 80.220 C 268.867 83.382,275.123 79.784,275.126 73.539 C 275.129 68.033,271.078 65.002,265.313 66.197 M186.866 69.163 C 185.723 69.819,183.834 71.399,182.670 72.673 L 180.553 74.989 180.553 82.702 L 180.553 90.415 182.612 92.668 C 191.224 102.091,199.893 97.114,199.970 82.702 C 200.035 70.618,194.429 64.826,186.866 69.163 M316.967 86.409 C 311.135 86.987,308.866 88.954,308.948 93.360 C 309.073 100.054,317.317 101.332,323.313 95.587 L 325.109 93.866 324.990 90.024 L 324.872 86.182 322.620 86.127 C 321.382 86.097,318.838 86.223,316.967 86.409 M261.752 106.015 C 260.039 107.059,258.342 110.000,258.342 111.923 C 258.342 119.324,277.106 118.996,278.218 111.576 C 278.799 107.705,276.961 106.306,270.451 105.662 C 264.329 105.057,263.251 105.101,261.752 106.015 M25.068 124.539 C 25.272 125.151,26.203 125.488,26.203 124.950 C 26.203 124.730,25.911 124.438,25.554 124.301 C 25.156 124.148,24.968 124.240,25.068 124.539 M265.258 141.810 C 265.589 142.208,265.692 145.973,265.615 154.809 L 265.507 167.247 263.971 167.374 L 262.436 167.501 262.436 154.614 C 262.436 144.687,262.554 141.679,262.948 141.520 C 263.902 141.135,264.790 141.247,265.258 141.810 M301.249 141.740 C 301.569 142.061,301.740 143.745,301.740 146.585 C 301.740 151.667,301.766 151.720,303.673 150.426 C 306.623 148.423,310.756 149.464,312.251 152.585 C 312.879 153.895,312.999 155.196,312.999 160.696 L 312.999 167.247 311.361 167.247 L 309.724 167.247 309.519 160.556 C 309.295 153.225,308.944 152.303,306.376 152.303 C 302.808 152.303,301.782 154.255,301.648 161.300 L 301.535 167.247 300.000 167.374 L 298.465 167.501 298.465 154.614 C 298.465 144.687,298.582 141.679,298.976 141.520 C 299.885 141.153,300.746 141.237,301.249 141.740 M340.962 141.740 C 341.541 142.319,341.668 166.069,341.097 166.970 C 340.890 167.296,340.199 167.459,339.363 167.379 L 337.973 167.247 337.865 154.759 C 337.765 143.383,337.818 142.227,338.455 141.760 C 339.337 141.115,340.329 141.106,340.962 141.740 M252.372 145.182 C 252.840 145.362,253.019 145.985,253.019 147.434 L 253.019 149.437 255.016 149.437 C 258.794 149.437,259.105 152.168,255.353 152.385 L 253.224 152.508 253.121 157.625 C 252.993 164.027,253.289 164.790,255.903 164.790 C 257.829 164.790,258.450 165.635,257.549 167.027 C 256.984 167.902,253.113 167.815,251.723 166.896 C 250.119 165.835,250.008 165.368,249.763 158.652 L 249.539 152.514 248.311 152.303 C 246.066 151.919,246.506 149.459,248.823 149.443 C 249.652 149.438,249.744 149.237,249.744 147.424 C 249.744 145.142,250.527 144.474,252.372 145.182 M180.475 151.196 L 180.601 152.697 178.762 152.617 C 176.853 152.534,175.694 153.199,174.681 154.960 C 174.416 155.419,174.116 158.315,174.002 161.515 L 173.797 167.247 172.262 167.374 L 170.727 167.501 170.727 158.681 L 170.727 149.862 171.727 149.611 C 173.041 149.281,173.593 149.666,173.593 150.913 L 173.593 151.932 175.128 150.720 C 177.884 148.545,180.269 148.757,180.475 151.196 M357.048 149.599 C 362.786 150.845,363.732 163.306,358.359 166.863 C 356.665 167.985,352.947 167.928,351.361 166.757 C 349.756 165.571,349.642 165.769,349.642 169.738 C 349.642 174.363,349.251 175.021,347.014 174.163 C 346.010 173.778,346.034 150.062,347.038 149.676 C 348.146 149.251,349.174 149.819,349.309 150.931 L 349.437 151.976 350.590 151.065 C 351.748 150.150,354.813 149.036,355.578 149.253 C 355.803 149.317,356.465 149.472,357.048 149.599 M115.113 149.949 C 115.461 150.230,116.509 152.673,117.442 155.378 C 120.424 164.026,120.399 163.985,121.092 161.412 C 121.965 158.174,124.995 150.037,125.435 149.750 C 126.048 149.350,126.998 149.370,127.671 149.796 C 128.317 150.206,128.133 150.955,125.904 157.011 C 122.357 166.648,121.084 170.193,120.712 171.470 C 120.203 173.212,118.995 174.411,117.751 174.411 C 116.298 174.411,116.242 173.649,117.465 170.499 L 118.569 167.656 117.456 164.790 C 113.754 155.259,112.127 150.576,112.331 150.043 C 112.615 149.304,114.247 149.249,115.113 149.949 M141.710 150.015 C 150.010 153.492,146.681 167.656,137.564 167.656 C 131.829 167.656,129.572 165.081,129.644 158.618 C 129.725 151.294,135.291 147.326,141.710 150.015 M153.926 150.229 C 154.159 150.665,154.350 153.529,154.350 156.595 C 154.350 165.084,156.711 167.515,160.846 163.285 L 162.129 161.974 162.129 155.918 L 162.129 149.862 163.152 149.605 C 165.396 149.042,165.404 149.077,165.404 158.636 L 165.404 167.451 163.971 167.451 C 162.855 167.451,162.538 167.286,162.538 166.701 C 162.538 165.430,162.086 165.395,160.574 166.548 C 157.592 168.820,153.396 167.859,151.650 164.503 C 151.047 163.345,150.780 150.278,151.348 149.710 C 151.913 149.144,153.519 149.467,153.926 150.229 M206.108 149.686 C 207.264 150.129,206.910 151.883,205.612 152.143 C 204.483 152.369,204.471 152.402,204.635 154.973 C 204.918 159.423,202.510 161.514,197.406 161.247 C 195.026 161.123,194.675 161.199,194.545 161.865 C 194.295 163.141,195.103 163.478,199.146 163.784 C 203.765 164.133,205.436 164.921,206.283 167.147 C 208.200 172.184,200.089 176.190,193.526 173.446 C 190.843 172.324,190.104 169.133,191.949 166.636 C 192.862 165.401,192.873 165.306,192.194 164.556 C 191.312 163.581,191.332 161.586,192.237 160.204 C 192.781 159.375,192.828 158.958,192.468 158.170 C 191.194 155.372,192.272 151.801,194.841 150.311 C 196.321 149.453,204.342 149.008,206.108 149.686 M221.383 150.533 C 223.759 152.073,225.417 156.471,224.363 158.438 C 223.955 159.202,223.516 159.263,218.396 159.263 C 212.140 159.263,211.873 159.405,213.080 162.081 C 214.323 164.837,218.062 165.819,221.984 164.419 C 224.359 163.571,224.901 165.694,222.620 166.915 C 218.639 169.047,211.899 167.377,210.183 163.834 C 206.115 155.435,214.176 145.860,221.383 150.533 M232.880 150.743 L 233.008 151.844 234.905 150.641 C 241.139 146.687,244.422 150.169,244.422 160.735 L 244.422 167.501 242.886 167.374 L 241.351 167.247 241.146 160.556 C 240.897 152.403,239.833 150.844,235.905 152.875 C 233.525 154.106,233.400 154.499,233.277 161.125 L 233.163 167.247 231.627 167.374 L 230.092 167.501 230.092 158.708 C 230.092 149.482,230.110 149.391,231.934 149.564 C 232.494 149.617,232.794 149.991,232.880 150.743 M281.896 150.447 C 283.818 151.573,284.738 153.159,285.170 156.094 C 285.619 159.138,285.374 159.263,278.991 159.263 C 273.026 159.263,272.780 159.363,273.488 161.509 C 274.538 164.689,278.381 165.917,282.585 164.416 C 284.287 163.809,284.545 163.914,284.545 165.221 C 284.545 167.750,276.577 168.756,273.407 166.627 C 268.187 163.122,269.047 152.159,274.719 149.897 C 276.708 149.104,280.040 149.359,281.896 150.447 M328.223 149.874 C 330.863 150.874,332.446 153.475,332.446 156.813 C 332.446 159.265,332.451 159.263,326.054 159.263 C 320.513 159.263,320.209 159.395,320.755 161.568 C 321.520 164.618,325.219 165.844,329.648 164.517 C 332.202 163.752,333.025 165.864,330.603 166.968 C 325.734 169.186,319.005 167.116,317.778 163.022 C 315.200 154.418,320.988 147.132,328.223 149.874 M377.077 150.358 C 379.068 151.713,380.009 153.204,380.388 155.603 C 380.955 159.184,380.826 159.263,374.384 159.263 C 368.238 159.263,368.037 159.357,368.862 161.858 C 369.790 164.667,373.137 165.745,377.307 164.577 C 380.078 163.801,381.077 165.796,378.505 166.968 C 373.271 169.353,366.942 167.093,365.618 162.367 C 363.221 153.804,370.669 145.997,377.077 150.358 M388.053 150.785 L 388.185 151.928 389.627 150.662 C 391.884 148.679,394.826 148.964,395.010 151.181 L 395.137 152.721 393.194 152.647 C 391.414 152.580,391.139 152.704,389.905 154.132 L 388.558 155.690 388.445 161.468 L 388.332 167.247 386.796 167.374 L 385.261 167.501 385.261 158.708 C 385.261 149.482,385.279 149.391,387.103 149.564 C 387.671 149.618,387.962 149.992,388.053 150.785 M136.518 152.331 C 133.649 153.165,131.993 157.293,133.034 161.012 C 134.579 166.528,141.475 166.260,142.529 160.643 C 143.618 154.837,140.887 151.061,136.518 152.331 M196.484 152.418 C 194.680 153.804,194.399 156.360,195.887 157.849 C 198.345 160.307,202.525 157.944,201.679 154.574 C 201.117 152.333,198.182 151.115,196.484 152.418 M214.869 152.597 C 211.154 154.901,212.063 156.585,217.093 156.718 L 221.494 156.834 221.494 155.826 C 221.494 153.000,217.420 151.014,214.869 152.597 M275.198 152.921 C 273.995 153.933,272.919 156.099,273.387 156.567 C 274.128 157.308,282.088 156.795,282.088 156.007 C 282.088 152.555,277.875 150.668,275.198 152.921 M322.776 152.675 C 321.687 153.339,320.573 155.253,320.573 156.458 C 320.573 156.650,322.508 156.807,324.872 156.807 L 329.171 156.807 329.171 155.756 C 329.171 152.636,325.635 150.932,322.776 152.675 M353.102 152.473 C 349.198 154.163,348.145 160.319,351.231 163.405 C 354.193 166.367,357.316 165.146,358.247 160.662 C 359.364 155.279,356.639 150.941,353.102 152.473 M370.883 152.509 C 369.891 153.048,368.475 155.311,368.475 156.357 C 368.475 156.925,376.917 156.981,377.266 156.415 C 378.698 154.099,373.646 151.007,370.883 152.509 M195.830 166.614 C 193.987 167.401,193.494 169.872,194.973 170.908 C 197.573 172.729,203.071 171.333,203.071 168.852 C 203.071 166.892,198.492 165.477,195.830 166.614 " stroke="none" fill="#ffffff" fill-rule="evenodd"></path><path id="path4" d="M169.703 35.892 C 167.300 36.541,167.451 34.138,167.451 71.633 C 167.451 111.722,166.807 107.472,172.883 107.472 C 178.229 107.472,178.506 107.288,178.506 103.737 C 178.506 100.575,178.401 100.586,181.512 103.433 C 187.441 108.858,195.928 109.937,203.181 106.186 C 204.640 105.432,208.802 101.612,208.802 101.027 C 208.802 100.813,209.161 100.134,209.600 99.518 C 214.785 92.237,215.041 74.146,210.082 65.464 C 204.584 55.837,192.715 53.892,183.129 61.049 C 181.957 61.925,180.897 62.641,180.775 62.641 C 180.653 62.641,180.553 57.042,180.553 50.199 C 180.553 34.862,180.965 35.889,174.764 35.759 C 172.431 35.711,170.154 35.770,169.703 35.892 M379.324 35.892 C 376.921 36.542,377.073 34.137,377.073 71.648 L 377.073 105.912 377.935 106.692 C 379.040 107.692,387.936 107.866,389.088 106.910 C 389.708 106.395,389.765 103.422,389.765 71.612 L 389.765 36.876 388.843 36.370 C 387.899 35.852,380.793 35.494,379.324 35.892 M227.431 37.726 C 222.337 39.608,222.161 48.613,227.185 50.300 C 230.567 51.436,235.536 50.664,237.256 48.735 C 238.243 47.628,238.663 42.036,237.898 40.187 C 236.922 37.831,230.949 36.427,227.431 37.726 M353.575 37.777 C 348.948 39.244,348.683 48.294,353.211 50.210 C 356.963 51.798,363.022 50.395,364.159 47.675 C 367.084 40.675,361.348 35.311,353.575 37.777 M123.439 40.298 C 123.214 40.388,122.525 40.572,121.909 40.708 C 120.211 41.082,118.480 45.186,113.002 61.822 C 112.817 62.385,111.530 66.070,110.143 70.010 C 108.756 73.951,107.002 79.017,106.246 81.269 C 105.489 83.521,103.736 88.588,102.350 92.528 C 96.840 108.187,96.785 107.850,104.811 107.566 C 110.752 107.355,110.441 107.649,113.003 99.816 C 114.203 96.145,115.361 92.912,115.575 92.631 C 115.872 92.241,118.927 92.119,128.369 92.119 L 140.773 92.119 141.654 94.882 C 142.139 96.402,142.697 98.014,142.894 98.465 C 143.092 98.915,143.755 100.850,144.369 102.764 C 145.899 107.534,145.699 107.397,151.374 107.594 C 160.890 107.925,160.823 108.151,155.576 93.347 C 154.419 90.082,153.127 86.397,152.706 85.159 C 152.057 83.251,148.372 72.749,147.679 70.829 C 147.556 70.491,146.896 68.557,146.211 66.530 C 145.526 64.504,144.028 60.174,142.881 56.909 C 141.735 53.644,140.231 49.314,139.539 47.288 C 137.865 42.388,137.321 41.399,136.009 40.869 C 134.953 40.443,124.294 39.959,123.439 40.298 M133.030 67.875 C 135.524 75.369,137.564 81.588,137.564 81.692 C 137.564 81.797,133.327 81.883,128.147 81.883 C 122.486 81.883,118.731 81.729,118.731 81.495 C 118.731 80.417,127.905 53.638,128.178 53.919 C 128.353 54.100,130.537 60.380,133.030 67.875 M312.999 56.998 C 302.090 59.053,298.465 61.271,298.465 65.890 C 298.465 70.758,299.890 71.719,304.091 69.684 C 316.302 63.769,324.541 65.618,325.000 74.376 L 325.179 77.789 323.388 77.802 C 304.086 77.937,296.246 82.545,296.246 93.756 C 296.246 107.774,313.914 113.754,325.478 103.650 C 327.174 102.168,327.250 102.214,327.524 104.914 C 327.784 107.466,328.785 107.900,333.597 107.547 C 338.146 107.212,337.769 108.919,337.769 88.675 C 337.769 67.050,337.394 64.903,332.933 60.977 C 329.142 57.640,319.649 55.745,312.999 56.998 M263.510 57.349 C 256.726 58.281,251.628 62.363,249.529 68.545 C 248.757 70.820,248.663 77.118,249.376 78.859 C 250.433 81.442,250.994 82.540,251.747 83.502 L 252.534 84.506 250.781 86.777 C 246.877 91.836,246.766 97.664,250.516 100.819 C 252.180 102.219,252.156 102.334,249.697 104.859 C 241.829 112.937,245.781 122.760,257.932 125.332 C 277.375 129.448,295.197 119.224,291.071 106.323 C 288.734 99.012,284.375 96.914,270.100 96.225 C 261.475 95.810,260.200 95.494,259.140 93.514 C 258.125 91.617,260.043 88.211,261.595 89.157 C 265.810 91.725,277.005 90.052,281.628 86.162 C 285.946 82.529,288.120 74.154,285.906 69.681 C 284.872 67.590,284.908 67.554,288.070 67.554 C 291.436 67.554,291.914 66.941,291.914 62.628 C 291.914 57.739,292.423 57.979,281.406 57.671 C 276.264 57.527,270.768 57.309,269.191 57.186 C 267.615 57.063,265.059 57.136,263.510 57.349 M226.094 58.152 C 224.431 58.820,224.360 59.826,224.360 82.702 C 224.360 106.041,224.407 106.627,226.291 107.153 C 228.133 107.668,235.507 107.510,236.540 106.933 L 237.462 106.420 237.462 82.667 L 237.462 58.914 236.042 58.321 C 234.445 57.654,227.623 57.538,226.094 58.152 M352.519 58.166 C 350.870 58.853,350.883 58.659,350.876 82.741 C 350.869 110.392,350.087 107.472,357.500 107.472 C 364.696 107.472,363.971 110.266,363.971 82.516 C 363.971 55.194,364.659 57.985,357.891 57.838 C 355.493 57.786,353.076 57.934,352.519 58.166 M269.806 66.137 C 276.136 67.386,277.678 76.512,272.173 80.145 C 265.266 84.703,257.015 76.855,260.977 69.497 C 262.052 67.502,265.976 65.314,267.758 65.716 C 268.096 65.793,269.017 65.982,269.806 66.137 M193.449 68.008 C 197.210 69.041,199.697 73.340,200.164 79.617 C 201.362 95.703,192.485 102.812,183.068 93.308 L 180.553 90.769 180.553 82.786 L 180.553 74.803 181.983 73.058 C 185.475 68.796,189.640 66.962,193.449 68.008 M325.077 90.031 L 325.077 94.084 322.810 96.156 C 317.055 101.415,309.680 100.171,308.513 93.742 C 307.644 88.960,312.246 86.084,320.880 86.012 L 325.077 85.977 325.077 90.031 M271.323 105.607 C 277.255 106.181,279.464 108.188,278.389 112.026 C 276.364 119.258,258.199 119.363,258.208 112.142 C 258.214 106.233,261.398 104.647,271.323 105.607 M262.632 142.148 C 262.517 142.447,262.472 148.216,262.532 154.969 L 262.641 167.247 263.948 167.373 C 265.728 167.546,265.769 167.201,265.625 153.327 L 265.507 141.863 264.173 141.734 C 263.344 141.654,262.761 141.811,262.632 142.148 M298.661 142.147 C 298.546 142.446,298.501 148.216,298.561 154.969 L 298.669 167.247 299.898 167.247 L 301.126 167.247 301.331 161.239 C 301.557 154.605,301.904 153.733,304.811 152.492 C 308.572 150.887,309.665 152.679,309.928 160.880 L 310.133 167.247 311.361 167.247 L 312.590 167.247 312.714 161.720 C 312.958 150.839,310.232 147.252,304.127 150.419 C 301.276 151.898,301.369 152.019,301.241 146.673 L 301.126 141.863 299.998 141.733 C 299.335 141.657,298.783 141.828,298.661 142.147 M338.470 141.912 C 338.309 142.073,338.178 147.896,338.178 154.854 L 338.178 167.503 339.509 167.375 L 340.839 167.247 340.839 154.555 L 340.839 141.863 339.800 141.742 C 339.229 141.675,338.630 141.752,338.470 141.912 M250.017 145.616 C 249.867 145.766,249.744 146.779,249.744 147.868 C 249.744 149.798,249.714 149.846,248.503 149.846 C 247.105 149.846,246.511 150.753,247.292 151.694 C 247.570 152.029,248.235 152.303,248.771 152.303 C 249.739 152.303,249.744 152.328,249.744 156.991 C 249.744 165.625,250.750 167.594,255.042 167.367 C 257.246 167.251,257.322 167.207,257.440 166.006 C 257.559 164.794,257.524 164.768,255.971 164.917 C 253.260 165.175,253.019 164.613,253.019 158.006 L 253.019 152.303 255.271 152.303 C 258.720 152.303,258.814 149.964,255.374 149.766 C 253.315 149.647,253.219 149.590,253.112 148.414 C 252.868 145.747,252.648 145.343,251.442 145.343 C 250.808 145.343,250.167 145.466,250.017 145.616 M136.540 149.693 C 136.090 149.795,135.310 149.966,134.808 150.073 C 129.036 151.303,127.770 162.977,133.025 166.518 C 135.268 168.030,140.100 167.876,142.350 166.222 C 149.884 160.682,145.324 147.709,136.540 149.693 M177.073 149.720 C 176.622 149.832,175.655 150.496,174.923 151.194 L 173.593 152.464 173.593 151.129 C 173.593 149.870,173.517 149.802,172.262 149.923 L 170.931 150.051 170.931 158.649 L 170.931 167.247 172.209 167.371 C 173.864 167.532,173.989 167.051,173.996 160.479 L 174.002 155.350 175.482 153.826 C 176.746 152.525,177.223 152.303,178.757 152.303 C 180.479 152.303,180.553 152.253,180.553 151.075 C 180.553 150.368,180.335 149.844,180.041 149.841 C 179.759 149.838,179.161 149.763,178.710 149.675 C 178.260 149.587,177.523 149.607,177.073 149.720 M215.140 149.802 C 208.228 151.545,207.270 164.168,213.837 166.964 C 216.802 168.226,223.938 167.125,223.938 165.404 C 223.938 164.363,223.174 164.166,221.458 164.764 C 216.942 166.336,213.105 164.676,212.603 160.932 L 212.379 159.263 217.449 159.257 C 224.323 159.250,224.360 159.236,224.360 156.742 C 224.360 151.836,220.023 148.571,215.140 149.802 M236.847 149.720 C 236.397 149.843,235.351 150.480,234.522 151.135 L 233.015 152.327 232.884 151.189 C 232.775 150.236,232.536 150.030,231.415 149.922 L 230.076 149.793 230.186 158.520 L 230.297 167.247 231.525 167.247 L 232.753 167.247 232.958 161.229 L 233.163 155.211 234.535 153.797 C 235.978 152.310,237.179 151.875,238.920 152.208 C 240.929 152.592,241.332 153.918,241.556 160.881 L 241.760 167.247 242.989 167.247 L 244.217 167.247 244.210 160.491 C 244.200 151.185,242.201 148.261,236.847 149.720 M275.947 149.810 C 268.936 151.217,267.805 163.998,274.431 166.943 C 277.147 168.149,283.867 167.304,284.379 165.691 C 284.785 164.410,284.027 164.106,282.111 164.782 C 277.534 166.397,273.088 164.233,273.082 160.389 L 273.081 159.263 278.370 159.263 C 285.057 159.263,284.954 159.305,284.954 156.581 C 284.954 151.732,281.039 148.788,275.947 149.810 M323.234 149.737 C 316.508 150.709,315.185 163.588,321.474 166.874 C 324.129 168.261,331.627 167.241,331.627 165.493 C 331.627 164.281,331.289 164.199,329.047 164.865 C 325.194 166.009,322.141 165.047,320.928 162.306 C 319.626 159.362,319.781 159.263,325.705 159.263 C 331.344 159.263,332.446 158.956,332.446 157.383 C 332.446 153.727,330.249 150.514,327.276 149.824 C 325.639 149.444,325.309 149.437,323.234 149.737 M353.476 149.828 C 352.770 149.996,351.636 150.529,350.956 151.013 C 349.382 152.134,349.232 152.119,349.232 150.844 C 349.232 149.907,349.090 149.808,347.902 149.923 L 346.571 150.051 346.571 161.924 L 346.571 173.797 347.755 173.932 C 349.386 174.119,349.628 173.534,349.635 169.396 C 349.639 167.426,349.729 165.814,349.837 165.814 C 349.944 165.814,350.635 166.182,351.372 166.631 C 356.464 169.736,361.617 165.643,361.680 158.444 C 361.735 152.248,358.331 148.674,353.476 149.828 M370.982 149.832 C 364.564 151.418,363.129 162.664,368.852 166.520 C 371.764 168.482,379.529 167.505,379.529 165.177 C 379.529 164.478,379.346 164.156,379.017 164.279 C 373.409 166.363,369.139 165.020,368.600 161.003 L 368.367 159.263 373.566 159.263 C 379.719 159.263,380.348 159.034,380.348 156.788 C 380.348 151.931,375.889 148.619,370.982 149.832 M391.198 149.828 C 390.747 150.014,389.918 150.663,389.355 151.270 L 388.332 152.374 388.125 151.213 C 387.954 150.253,387.687 150.029,386.582 149.922 L 385.245 149.793 385.355 158.520 L 385.466 167.247 386.694 167.247 L 387.922 167.247 388.127 161.515 C 388.392 154.081,389.415 152.303,393.422 152.303 C 394.983 152.303,395.087 152.229,395.087 151.126 C 395.087 149.650,393.172 149.011,391.198 149.828 M112.180 150.039 C 112.180 150.249,116.909 163.048,117.479 164.381 C 118.808 167.488,118.814 167.622,117.729 170.503 C 116.427 173.963,116.428 174.002,117.862 174.002 C 119.588 174.002,119.725 173.699,125.957 156.192 C 126.518 154.616,127.149 152.903,127.358 152.386 C 128.122 150.495,127.860 149.782,126.451 149.923 C 125.179 150.050,125.140 150.123,122.987 156.361 C 121.185 161.584,119.959 164.395,119.959 163.308 C 119.959 163.190,119.209 160.989,118.292 158.415 C 117.375 155.842,116.334 152.861,115.978 151.791 C 115.409 150.081,112.180 148.591,112.180 150.039 M151.075 156.206 C 151.075 163.198,151.434 164.767,153.432 166.485 C 155.058 167.883,158.557 167.855,160.491 166.428 C 162.196 165.170,162.446 165.158,162.612 166.325 C 162.715 167.047,163.009 167.247,163.971 167.247 L 165.200 167.247 165.316 159.468 C 165.455 150.182,165.400 149.846,163.759 149.846 L 162.538 149.846 162.538 155.752 C 162.538 162.385,162.105 163.491,158.996 164.790 C 155.310 166.330,154.178 164.417,154.007 156.355 L 153.869 149.846 152.472 149.846 L 151.075 149.846 151.075 156.206 M194.595 150.649 C 192.257 152.074,191.428 154.918,192.493 157.861 C 192.888 158.954,192.847 159.435,192.252 160.688 C 191.487 162.302,191.636 163.888,192.662 165.026 C 193.171 165.591,193.115 165.792,192.220 166.633 C 187.321 171.236,197.133 176.611,203.622 172.879 C 208.963 169.808,206.588 164.794,199.422 164.010 C 194.853 163.511,193.637 162.872,194.432 161.386 C 194.820 160.662,195.062 160.602,196.212 160.942 C 201.111 162.392,206.000 158.114,204.372 153.802 C 203.819 152.336,204.039 151.894,205.322 151.894 C 206.456 151.894,206.861 151.417,206.508 150.498 C 206.100 149.434,196.385 149.557,194.595 150.649 M140.971 153.113 C 144.543 156.249,143.406 163.863,139.197 164.996 C 135.525 165.985,132.671 163.281,132.658 158.801 C 132.641 152.992,137.246 149.842,140.971 153.113 M200.895 152.784 C 203.231 154.979,201.569 158.854,198.291 158.854 C 195.988 158.854,194.882 157.809,194.882 155.634 C 194.882 152.259,198.507 150.541,200.895 152.784 M220.298 153.090 C 221.102 153.894,221.494 154.700,221.494 155.547 L 221.494 156.807 216.940 156.807 L 212.385 156.807 212.640 155.476 C 213.294 152.061,217.849 150.642,220.298 153.090 M280.891 153.090 C 281.695 153.894,282.088 154.700,282.088 155.547 L 282.088 156.807 277.584 156.807 C 272.632 156.807,272.476 156.708,273.693 154.355 C 275.120 151.594,278.757 150.956,280.891 153.090 M327.792 152.619 C 331.206 155.384,330.307 156.807,325.145 156.807 C 320.148 156.807,320.073 156.779,320.645 155.138 C 321.635 152.300,325.651 150.885,327.792 152.619 M356.894 152.785 C 361.208 156.365,357.825 166.782,353.002 164.767 C 349.491 163.299,347.943 156.493,350.563 154.039 C 352.767 151.974,355.310 151.470,356.894 152.785 M375.694 152.619 C 379.126 155.399,378.213 156.807,372.979 156.807 L 368.475 156.807 368.475 155.742 C 368.475 152.854,373.370 150.736,375.694 152.619 M202.625 167.214 C 204.934 169.303,202.688 171.750,198.461 171.750 C 194.169 171.750,192.465 169.460,194.925 166.999 C 196.082 165.842,201.269 165.987,202.625 167.214 " stroke="none" fill="#02b3e4" fill-rule="evenodd"></path></g></svg>